# Blender v2.79 (sub 0) OBJ File: ''
# www.blender.org
o Cube_Cube.001
v -1.000000 -1.000000 1.000000
v -1.000000 1.000000 1.000000
v -1.000000 -1.000000 -1.000000
v -1.000000 1.000000 -1.000000
v 1.000000 -1.000000 1.000000
v 1.000000 1.000000 1.000000
v 1.000000 -1.000000 -1.000000
v 1.000000 1.000000 -1.000000
v -1.000000 0.990374 1.000000
v -1.000000 0.990374 -1.000000
v 1.000000 0.990374 -1.000000
v 1.000000 0.990374 1.000000
v -0.991642 -1.000000 -1.000000
v -0.991642 1.000000 -1.000000
v -0.991642 -1.000000 1.000000
v -0.991642 1.000000 1.000000
v -0.991642 0.990374 1.000000
v -0.991642 0.990374 -1.000000
v -1.000000 -1.000000 -0.990140
v -1.000000 1.000000 -0.990140
v 1.000000 -1.000000 -0.990140
v 1.000000 1.000000 -0.990140
v 1.000000 0.990374 -0.990140
v -1.000000 0.990374 -0.990140
v -0.991642 1.000000 -0.990140
v -0.991642 -1.000000 -0.990140
v 0.991468 1.000000 -1.000000
v 0.991468 -1.000000 1.000000
v 0.991468 0.990374 -1.000000
v 0.991468 -1.000000 -1.000000
v 0.991468 1.000000 1.000000
v 0.991468 0.990374 1.000000
v 0.991468 1.000000 -0.990140
v 0.991468 -1.000000 -0.990140
v -1.000000 -1.000000 0.993648
v 1.000000 1.000000 0.993648
v 1.000000 0.990374 0.993648
v -0.991642 1.000000 0.993648
v -0.991642 -1.000000 0.993648
v -1.000000 1.000000 0.993648
v 1.000000 -1.000000 0.993648
v -1.000000 0.990374 0.993648
v 0.991468 1.000000 0.993648
v 0.991468 -1.000000 0.993648
v -1.000000 -0.994404 -1.000000
v 1.000000 -0.994404 -1.000000
v 1.000000 -0.994404 1.000000
v -1.000000 -0.994404 1.000000
v -0.991642 -0.994404 -1.000000
v -0.991642 -0.994404 1.000000
v -1.000000 -0.994404 -0.990140
v 1.000000 -0.994404 -0.990140
v 0.991468 -0.994404 1.000000
v 0.991468 -0.994404 -1.000000
v -1.000000 -0.994404 0.993648
v 1.000000 -0.994404 0.993648
vn -0.7071 0.7071 0.0000
vn -0.7071 0.0000 -0.7071
vn -1.0000 0.0000 0.0000
vn 0.0000 0.7071 -0.7071
vn 0.7071 0.0000 -0.7071
vn 0.0000 0.0000 -1.0000
vn 0.7071 0.7071 0.0000
vn 0.7071 0.0000 0.7071
vn 1.0000 0.0000 0.0000
vn 0.0000 0.7071 0.7071
vn -0.7071 0.0000 0.7071
vn 0.0000 0.0000 1.0000
vn 0.7071 -0.7071 0.0000
vn 0.0000 -0.7071 0.7071
vn 0.0000 -1.0000 0.0000
vn 0.0000 1.0000 0.0000
vn -0.5773 -0.5773 0.5773
vn -0.7071 -0.7071 0.0000
vn -0.5773 0.5773 -0.5773
vn 0.0000 -0.7071 -0.7071
vn -0.5773 -0.5773 -0.5773
vn 0.5773 -0.5773 -0.5773
vn 0.5773 0.5773 -0.5773
vn 0.5773 0.5773 0.5773
vn -0.5773 0.5773 0.5773
vn 0.5773 -0.5773 0.5773
s 1
f 20//1 10//2 24//3
f 27//4 11//5 29//6
f 36//7 12//8 37//9
f 16//10 9//11 17//12
f 41//13 28//14 44//15
f 40//1 16//10 38//16
f 17//12 48//11 50//12
f 37//9 47//8 56//9
f 29//6 46//5 54//6
f 24//3 45//2 51//3
f 10//2 49//6 45//2
f 32//12 50//12 53//12
f 38//16 31//10 43//16
f 39//15 1//17 35//18
f 31//10 17//12 32//12
f 4//19 18//6 10//2
f 13//20 19//18 3//21
f 14//4 33//16 27//4
f 42//3 51//3 55//3
f 11//5 52//9 46//5
f 4//19 25//16 14//4
f 7//22 34//15 30//20
f 8//23 23//9 11//5
f 40//1 24//3 42//3
f 30//20 26//15 13//20
f 27//4 22//7 8//23
f 6//24 32//12 12//8
f 43//16 6//24 36//7
f 12//8 53//12 47//8
f 18//6 54//6 49//6
f 44//15 15//14 39//15
f 14//4 29//6 18//6
f 34//15 39//15 26//15
f 33//16 36//7 22//7
f 2//25 42//3 9//11
f 9//11 55//3 48//11
f 26//15 35//18 19//18
f 25//16 43//16 33//16
f 23//9 56//9 52//9
f 20//1 38//16 25//16
f 21//13 44//15 34//15
f 22//7 37//9 23//9
f 52//9 41//13 21//13
f 48//11 35//18 1//17
f 49//6 30//20 13//20
f 47//8 28//14 5//26
f 46//5 21//13 7//22
f 55//3 19//18 35//18
f 53//12 15//14 28//14
f 45//2 13//20 3//21
f 51//3 3//21 19//18
f 54//6 7//22 30//20
f 56//9 5//26 41//13
f 50//12 1//17 15//14
f 20//1 4//19 10//2
f 27//4 8//23 11//5
f 36//7 6//24 12//8
f 16//10 2//25 9//11
f 41//13 5//26 28//14
f 40//1 2//25 16//10
f 17//12 9//11 48//11
f 37//9 12//8 47//8
f 29//6 11//5 46//5
f 24//3 10//2 45//2
f 10//2 18//6 49//6
f 32//12 17//12 50//12
f 38//16 16//10 31//10
f 39//15 15//14 1//17
f 31//10 16//10 17//12
f 4//19 14//4 18//6
f 13//20 26//15 19//18
f 14//4 25//16 33//16
f 42//3 24//3 51//3
f 11//5 23//9 52//9
f 4//19 20//1 25//16
f 7//22 21//13 34//15
f 8//23 22//7 23//9
f 40//1 20//1 24//3
f 30//20 34//15 26//15
f 27//4 33//16 22//7
f 6//24 31//10 32//12
f 43//16 31//10 6//24
f 12//8 32//12 53//12
f 18//6 29//6 54//6
f 44//15 28//14 15//14
f 14//4 27//4 29//6
f 34//15 44//15 39//15
f 33//16 43//16 36//7
f 2//25 40//1 42//3
f 9//11 42//3 55//3
f 26//15 39//15 35//18
f 25//16 38//16 43//16
f 23//9 37//9 56//9
f 20//1 40//1 38//16
f 21//13 41//13 44//15
f 22//7 36//7 37//9
f 52//9 56//9 41//13
f 48//11 55//3 35//18
f 49//6 54//6 30//20
f 47//8 53//12 28//14
f 46//5 52//9 21//13
f 55//3 51//3 19//18
f 53//12 50//12 15//14
f 45//2 49//6 13//20
f 51//3 45//2 3//21
f 54//6 46//5 7//22
f 56//9 47//8 5//26
f 50//12 48//11 1//17
