# Blender v2.79 (sub 0) OBJ File: ''
# www.blender.org
o Cylinder
v 0.000000 -1.000000 -1.000000
v 0.000000 1.000000 -1.000000
v 0.195090 -1.000000 -0.980785
v 0.195090 1.000000 -0.980785
v 0.382683 -1.000000 -0.923880
v 0.382683 1.000000 -0.923880
v 0.555570 -1.000000 -0.831470
v 0.555570 1.000000 -0.831470
v 0.707107 -1.000000 -0.707107
v 0.707107 1.000000 -0.707107
v 0.831470 -1.000000 -0.555570
v 0.831470 1.000000 -0.555570
v 0.923880 -1.000000 -0.382683
v 0.923880 1.000000 -0.382683
v 0.980785 -1.000000 -0.195090
v 0.980785 1.000000 -0.195090
v 1.000000 -1.000000 -0.000000
v 1.000000 1.000000 -0.000000
v 0.980785 -1.000000 0.195090
v 0.980785 1.000000 0.195090
v 0.923880 -1.000000 0.382683
v 0.923880 1.000000 0.382683
v 0.831470 -1.000000 0.555570
v 0.831470 1.000000 0.555570
v 0.707107 -1.000000 0.707107
v 0.707107 1.000000 0.707107
v 0.555570 -1.000000 0.831470
v 0.555570 1.000000 0.831470
v 0.382683 -1.000000 0.923880
v 0.382683 1.000000 0.923880
v 0.195090 -1.000000 0.980785
v 0.195090 1.000000 0.980785
v -0.000000 -1.000000 1.000000
v -0.000000 1.000000 1.000000
v -0.195091 -1.000000 0.980785
v -0.195091 1.000000 0.980785
v -0.382684 -1.000000 0.923879
v -0.382684 1.000000 0.923879
v -0.555571 -1.000000 0.831469
v -0.555571 1.000000 0.831469
v -0.707107 -1.000000 0.707106
v -0.707107 1.000000 0.707106
v -0.831470 -1.000000 0.555570
v -0.831470 1.000000 0.555570
v -0.923880 -1.000000 0.382683
v -0.923880 1.000000 0.382683
v -0.980785 -1.000000 0.195089
v -0.980785 1.000000 0.195089
v -1.000000 -1.000000 -0.000001
v -1.000000 1.000000 -0.000001
v -0.980785 -1.000000 -0.195091
v -0.980785 1.000000 -0.195091
v -0.923879 -1.000000 -0.382684
v -0.923879 1.000000 -0.382684
v -0.831469 -1.000000 -0.555571
v -0.831469 1.000000 -0.555571
v -0.707106 -1.000000 -0.707108
v -0.707106 1.000000 -0.707108
v -0.555569 -1.000000 -0.831470
v -0.555569 1.000000 -0.831470
v -0.382682 -1.000000 -0.923880
v -0.382682 1.000000 -0.923880
v -0.195089 -1.000000 -0.980786
v -0.195089 1.000000 -0.980786
v 0.000000 0.992814 -1.000000
v 0.195090 0.992814 -0.980785
v 0.382683 0.992814 -0.923880
v 0.555570 0.992814 -0.831470
v 0.707107 0.992814 -0.707107
v 0.831470 0.992814 -0.555570
v 0.923880 0.992814 -0.382683
v 0.980785 0.992814 -0.195090
v 1.000000 0.992814 -0.000000
v 0.980785 0.992814 0.195090
v 0.923880 0.992814 0.382683
v 0.831470 0.992814 0.555570
v 0.707107 0.992814 0.707107
v 0.555570 0.992814 0.831470
v 0.382683 0.992814 0.923880
v 0.195090 0.992814 0.980785
v -0.000000 0.992814 1.000000
v -0.195091 0.992814 0.980785
v -0.382684 0.992814 0.923879
v -0.555571 0.992814 0.831469
v -0.707107 0.992814 0.707106
v -0.831470 0.992814 0.555570
v -0.923880 0.992814 0.382683
v -0.980785 0.992814 0.195089
v -1.000000 0.992814 -0.000001
v -0.980785 0.992814 -0.195091
v -0.923879 0.992814 -0.382684
v -0.831469 0.992814 -0.555571
v -0.707106 0.992814 -0.707108
v -0.555569 0.992814 -0.831470
v -0.382682 0.992814 -0.923880
v -0.195089 0.992814 -0.980786
v 0.195090 -0.983542 -0.980785
v 0.382683 -0.983542 -0.923880
v 0.555570 -0.983542 -0.831470
v 0.707107 -0.983542 -0.707107
v 0.831470 -0.983542 -0.555570
v 0.923880 -0.983542 -0.382683
v 0.980785 -0.983542 -0.195090
v 1.000000 -0.983542 -0.000000
v 0.980785 -0.983542 0.195090
v 0.923880 -0.983542 0.382683
v 0.831470 -0.983542 0.555570
v 0.707107 -0.983542 0.707107
v 0.555570 -0.983542 0.831470
v 0.382683 -0.983542 0.923880
v 0.195090 -0.983542 0.980785
v -0.000000 -0.983542 1.000000
v -0.195091 -0.983542 0.980785
v -0.382684 -0.983542 0.923879
v -0.555571 -0.983542 0.831469
v -0.707107 -0.983542 0.707106
v -0.831470 -0.983542 0.555570
v -0.923880 -0.983542 0.382683
v -0.980785 -0.983542 0.195089
v -1.000000 -0.983542 -0.000001
v -0.980785 -0.983542 -0.195091
v -0.923879 -0.983542 -0.382684
v -0.831469 -0.983542 -0.555571
v -0.707106 -0.983542 -0.707108
v -0.555569 -0.983542 -0.831470
v -0.382682 -0.983542 -0.923880
v -0.195089 -0.983542 -0.980786
v 0.000000 -0.983542 -1.000000
v 0.000000 1.000000 -0.984258
v 0.192019 1.000000 -0.965346
v 0.376659 1.000000 -0.909336
v 0.546825 1.000000 -0.818381
v 0.695976 1.000000 -0.695976
v 0.818381 1.000000 -0.546825
v 0.909336 1.000000 -0.376659
v 0.965346 1.000000 -0.192019
v 0.984258 1.000000 -0.000000
v 0.965346 1.000000 0.192019
v 0.909336 1.000000 0.376659
v 0.818381 1.000000 0.546825
v 0.695976 1.000000 0.695976
v 0.546825 1.000000 0.818381
v 0.376659 1.000000 0.909336
v 0.192019 1.000000 0.965346
v -0.000000 1.000000 0.984258
v -0.192020 1.000000 0.965346
v -0.376660 1.000000 0.909336
v -0.546825 1.000000 0.818381
v -0.695976 1.000000 0.695975
v -0.818381 1.000000 0.546824
v -0.909336 1.000000 0.376659
v -0.965346 1.000000 0.192018
v -0.984258 1.000000 -0.000001
v -0.965346 1.000000 -0.192020
v -0.909336 1.000000 -0.376660
v -0.818380 1.000000 -0.546826
v -0.695975 1.000000 -0.695977
v -0.546824 1.000000 -0.818382
v -0.376658 1.000000 -0.909337
v -0.192018 1.000000 -0.965346
v 0.000000 -1.000000 -0.989109
v 0.192966 -1.000000 -0.970103
v 0.378516 -1.000000 -0.913817
v 0.549519 -1.000000 -0.822414
v 0.699406 -1.000000 -0.699406
v 0.822414 -1.000000 -0.549519
v 0.913817 -1.000000 -0.378516
v 0.970103 -1.000000 -0.192966
v 0.989109 -1.000000 -0.000000
v 0.970104 -1.000000 0.192965
v 0.913818 -1.000000 0.378515
v 0.822414 -1.000000 0.549519
v 0.699406 -1.000000 0.699406
v 0.549519 -1.000000 0.822414
v 0.378515 -1.000000 0.913818
v 0.192965 -1.000000 0.970104
v -0.000000 -1.000000 0.989109
v -0.192966 -1.000000 0.970103
v -0.378516 -1.000000 0.913817
v -0.549520 -1.000000 0.822414
v -0.699406 -1.000000 0.699405
v -0.822414 -1.000000 0.549519
v -0.913818 -1.000000 0.378515
v -0.970104 -1.000000 0.192965
v -0.989109 -1.000000 -0.000001
v -0.970103 -1.000000 -0.192967
v -0.913817 -1.000000 -0.378517
v -0.822413 -1.000000 -0.549520
v -0.699405 -1.000000 -0.699407
v -0.549518 -1.000000 -0.822415
v -0.378514 -1.000000 -0.913818
v -0.192964 -1.000000 -0.970104
vn 0.0000 0.6857 -0.7279
vn 0.1951 0.0000 -0.9808
vn 0.0000 0.0000 -1.0000
vn 0.1420 0.6857 -0.7139
vn 0.3827 0.0000 -0.9239
vn 0.2785 0.6857 -0.6725
vn 0.5556 0.0000 -0.8314
vn 0.4044 0.6857 -0.6052
vn 0.7071 0.0000 -0.7071
vn 0.5147 0.6857 -0.5147
vn 0.8314 0.0000 -0.5556
vn 0.6052 0.6857 -0.4044
vn 0.9239 0.0000 -0.3827
vn 0.6725 0.6857 -0.2785
vn 0.9808 0.0000 -0.1951
vn 0.7139 0.6857 -0.1420
vn 1.0000 0.0000 0.0000
vn 0.7279 0.6857 0.0000
vn 0.9808 0.0000 0.1951
vn 0.7139 0.6857 0.1420
vn 0.9239 0.0000 0.3827
vn 0.6725 0.6857 0.2785
vn 0.8314 0.0000 0.5556
vn 0.6052 0.6857 0.4044
vn 0.7071 0.0000 0.7071
vn 0.5147 0.6857 0.5147
vn 0.5556 0.0000 0.8314
vn 0.4044 0.6857 0.6052
vn 0.3827 0.0000 0.9239
vn 0.2785 0.6857 0.6725
vn 0.1951 0.0000 0.9808
vn 0.1420 0.6857 0.7139
vn 0.0000 0.0000 1.0000
vn 0.0000 0.6857 0.7279
vn -0.1951 0.0000 0.9808
vn -0.1420 0.6857 0.7139
vn -0.3827 0.0000 0.9239
vn -0.2785 0.6857 0.6725
vn -0.5556 0.0000 0.8314
vn -0.4044 0.6857 0.6052
vn -0.7071 0.0000 0.7071
vn -0.5147 0.6857 0.5147
vn -0.8314 0.0000 0.5556
vn -0.6052 0.6857 0.4044
vn -0.9239 0.0000 0.3827
vn -0.6725 0.6857 0.2785
vn -0.9808 0.0000 0.1951
vn -0.7139 0.6857 0.1420
vn -1.0000 0.0000 0.0000
vn -0.7279 0.6857 0.0000
vn -0.9808 0.0000 -0.1951
vn -0.7139 0.6857 -0.1420
vn -0.9239 0.0000 -0.3827
vn -0.6725 0.6857 -0.2785
vn -0.8314 0.0000 -0.5556
vn -0.6052 0.6857 -0.4044
vn -0.7071 0.0000 -0.7071
vn -0.5147 0.6857 -0.5147
vn -0.5556 0.0000 -0.8314
vn -0.4044 0.6857 -0.6052
vn -0.3827 0.0000 -0.9239
vn 0.0000 1.0000 0.0000
vn -0.2785 0.6857 -0.6725
vn -0.1951 0.0000 -0.9808
vn -0.1420 0.6857 -0.7139
vn 0.7139 -0.6857 -0.1420
vn 0.0000 -1.0000 0.0000
vn 0.1420 -0.6857 -0.7139
vn 0.0000 -0.6857 -0.7279
vn 0.2785 -0.6857 -0.6725
vn 0.4044 -0.6857 -0.6052
vn 0.5147 -0.6857 -0.5147
vn 0.6052 -0.6857 -0.4044
vn 0.6725 -0.6857 -0.2785
vn 0.7279 -0.6857 0.0000
vn 0.7139 -0.6857 0.1420
vn 0.6725 -0.6857 0.2785
vn 0.6052 -0.6857 0.4044
vn 0.5147 -0.6857 0.5147
vn 0.4044 -0.6857 0.6052
vn 0.2785 -0.6857 0.6725
vn 0.1420 -0.6857 0.7139
vn 0.0000 -0.6857 0.7279
vn -0.1420 -0.6857 0.7139
vn -0.2785 -0.6857 0.6725
vn -0.4044 -0.6857 0.6052
vn -0.5147 -0.6857 0.5147
vn -0.6052 -0.6857 0.4044
vn -0.6725 -0.6857 0.2785
vn -0.7139 -0.6857 0.1420
vn -0.7279 -0.6857 0.0000
vn -0.7139 -0.6857 -0.1420
vn -0.6725 -0.6857 -0.2785
vn -0.6052 -0.6857 -0.4044
vn -0.5147 -0.6857 -0.5147
vn -0.4044 -0.6857 -0.6052
vn -0.2785 -0.6857 -0.6725
vn -0.1420 -0.6857 -0.7139
s 1
f 2//1 66//2 65//3
f 4//4 67//5 66//2
f 6//6 68//7 67//5
f 8//8 69//9 68//7
f 10//10 70//11 69//9
f 12//12 71//13 70//11
f 14//14 72//15 71//13
f 16//16 73//17 72//15
f 18//18 74//19 73//17
f 20//20 75//21 74//19
f 22//22 76//23 75//21
f 24//24 77//25 76//23
f 26//26 78//27 77//25
f 28//28 79//29 78//27
f 30//30 80//31 79//29
f 32//32 81//33 80//31
f 34//34 82//35 81//33
f 36//36 83//37 82//35
f 38//38 84//39 83//37
f 40//40 85//41 84//39
f 42//42 86//43 85//41
f 44//44 87//45 86//43
f 46//46 88//47 87//45
f 48//48 89//49 88//47
f 50//50 90//51 89//49
f 52//52 91//53 90//51
f 54//54 92//55 91//53
f 56//56 93//57 92//55
f 58//58 94//59 93//57
f 60//60 95//61 94//59
f 42//42 150//62 44//44
f 62//63 96//64 95//61
f 64//65 65//3 96//64
f 15//66 169//67 168//67
f 96//64 128//3 127//64
f 95//61 127//64 126//61
f 94//59 126//61 125//59
f 93//57 125//59 124//57
f 92//55 124//57 123//55
f 91//53 123//55 122//53
f 90//51 122//53 121//51
f 89//49 121//51 120//49
f 88//47 120//49 119//47
f 87//45 119//47 118//45
f 86//43 118//45 117//43
f 85//41 117//43 116//41
f 84//39 116//41 115//39
f 83//37 115//39 114//37
f 82//35 114//37 113//35
f 81//33 113//35 112//33
f 80//31 112//33 111//31
f 79//29 111//31 110//29
f 78//27 110//29 109//27
f 77//25 109//27 108//25
f 76//23 108//25 107//23
f 75//21 107//23 106//21
f 74//19 106//21 105//19
f 73//17 105//19 104//17
f 72//15 104//17 103//15
f 71//13 103//15 102//13
f 70//11 102//13 101//11
f 69//9 101//11 100//9
f 68//7 100//9 99//7
f 67//5 99//7 98//5
f 66//2 98//5 97//2
f 65//3 97//2 128//3
f 128//3 3//68 1//69
f 97//2 5//70 3//68
f 98//5 7//71 5//70
f 99//7 9//72 7//71
f 100//9 11//73 9//72
f 101//11 13//74 11//73
f 102//13 15//66 13//74
f 103//15 17//75 15//66
f 104//17 19//76 17//75
f 105//19 21//77 19//76
f 106//21 23//78 21//77
f 107//23 25//79 23//78
f 108//25 27//80 25//79
f 109//27 29//81 27//80
f 110//29 31//82 29//81
f 111//31 33//83 31//82
f 112//33 35//84 33//83
f 113//35 37//85 35//84
f 114//37 39//86 37//85
f 115//39 41//87 39//86
f 116//41 43//88 41//87
f 117//43 45//89 43//88
f 118//45 47//90 45//89
f 119//47 49//91 47//90
f 120//49 51//92 49//91
f 121//51 53//93 51//92
f 122//53 55//94 53//93
f 123//55 57//95 55//94
f 124//57 59//96 57//95
f 125//59 61//97 59//96
f 126//61 63//98 61//97
f 127//64 1//69 63//98
f 143//62 139//62 131//62
f 62//63 158//62 159//62
f 16//16 137//62 18//18
f 34//34 146//62 36//36
f 52//52 155//62 54//54
f 10//10 132//62 133//62
f 26//26 142//62 28//28
f 44//44 151//62 46//46
f 62//63 160//62 64//65
f 18//18 138//62 20//20
f 38//38 146//62 147//62
f 56//56 155//62 156//62
f 10//10 134//62 12//12
f 28//28 143//62 30//30
f 48//48 151//62 152//62
f 2//1 130//62 4//4
f 2//1 160//62 129//62
f 20//20 139//62 22//22
f 38//38 148//62 40//40
f 58//58 156//62 157//62
f 14//14 134//62 135//62
f 30//30 144//62 32//32
f 48//48 153//62 50//50
f 4//4 131//62 6//6
f 22//22 140//62 24//24
f 40//40 149//62 42//42
f 60//60 157//62 158//62
f 14//14 136//62 16//16
f 32//32 145//62 34//34
f 52//52 153//62 154//62
f 6//6 132//62 8//8
f 26//26 140//62 141//62
f 180//67 184//67 192//67
f 33//83 178//67 177//67
f 51//92 187//67 186//67
f 9//72 164//67 7//71
f 25//79 174//67 173//67
f 43//88 183//67 182//67
f 63//98 191//67 61//97
f 17//75 170//67 169//67
f 35//84 179//67 178//67
f 53//93 188//67 187//67
f 9//72 166//67 165//67
f 29//81 174//67 27//80
f 47//90 183//67 45//89
f 1//69 162//67 161//67
f 1//69 192//67 63//98
f 21//77 170//67 19//76
f 37//85 180//67 179//67
f 57//95 188//67 55//94
f 13//74 166//67 11//73
f 31//82 175//67 29//81
f 47//90 185//67 184//67
f 5//70 162//67 3//68
f 23//78 171//67 21//77
f 39//86 181//67 180//67
f 59//96 189//67 57//95
f 13//74 168//67 167//67
f 33//83 176//67 31//82
f 51//92 185//67 49//91
f 5//70 164//67 163//67
f 25//79 172//67 23//78
f 43//88 181//67 41//87
f 61//97 190//67 59//96
f 2//1 4//4 66//2
f 4//4 6//6 67//5
f 6//6 8//8 68//7
f 8//8 10//10 69//9
f 10//10 12//12 70//11
f 12//12 14//14 71//13
f 14//14 16//16 72//15
f 16//16 18//18 73//17
f 18//18 20//20 74//19
f 20//20 22//22 75//21
f 22//22 24//24 76//23
f 24//24 26//26 77//25
f 26//26 28//28 78//27
f 28//28 30//30 79//29
f 30//30 32//32 80//31
f 32//32 34//34 81//33
f 34//34 36//36 82//35
f 36//36 38//38 83//37
f 38//38 40//40 84//39
f 40//40 42//42 85//41
f 42//42 44//44 86//43
f 44//44 46//46 87//45
f 46//46 48//48 88//47
f 48//48 50//50 89//49
f 50//50 52//52 90//51
f 52//52 54//54 91//53
f 54//54 56//56 92//55
f 56//56 58//58 93//57
f 58//58 60//60 94//59
f 60//60 62//63 95//61
f 42//42 149//62 150//62
f 62//63 64//65 96//64
f 64//65 2//1 65//3
f 15//66 17//75 169//67
f 96//64 65//3 128//3
f 95//61 96//64 127//64
f 94//59 95//61 126//61
f 93//57 94//59 125//59
f 92//55 93//57 124//57
f 91//53 92//55 123//55
f 90//51 91//53 122//53
f 89//49 90//51 121//51
f 88//47 89//49 120//49
f 87//45 88//47 119//47
f 86//43 87//45 118//45
f 85//41 86//43 117//43
f 84//39 85//41 116//41
f 83//37 84//39 115//39
f 82//35 83//37 114//37
f 81//33 82//35 113//35
f 80//31 81//33 112//33
f 79//29 80//31 111//31
f 78//27 79//29 110//29
f 77//25 78//27 109//27
f 76//23 77//25 108//25
f 75//21 76//23 107//23
f 74//19 75//21 106//21
f 73//17 74//19 105//19
f 72//15 73//17 104//17
f 71//13 72//15 103//15
f 70//11 71//13 102//13
f 69//9 70//11 101//11
f 68//7 69//9 100//9
f 67//5 68//7 99//7
f 66//2 67//5 98//5
f 65//3 66//2 97//2
f 128//3 97//2 3//68
f 97//2 98//5 5//70
f 98//5 99//7 7//71
f 99//7 100//9 9//72
f 100//9 101//11 11//73
f 101//11 102//13 13//74
f 102//13 103//15 15//66
f 103//15 104//17 17//75
f 104//17 105//19 19//76
f 105//19 106//21 21//77
f 106//21 107//23 23//78
f 107//23 108//25 25//79
f 108//25 109//27 27//80
f 109//27 110//29 29//81
f 110//29 111//31 31//82
f 111//31 112//33 33//83
f 112//33 113//35 35//84
f 113//35 114//37 37//85
f 114//37 115//39 39//86
f 115//39 116//41 41//87
f 116//41 117//43 43//88
f 117//43 118//45 45//89
f 118//45 119//47 47//90
f 119//47 120//49 49//91
f 120//49 121//51 51//92
f 121//51 122//53 53//93
f 122//53 123//55 55//94
f 123//55 124//57 57//95
f 124//57 125//59 59//96
f 125//59 126//61 61//97
f 126//61 127//64 63//98
f 127//64 128//3 1//69
f 131//62 130//62 159//62
f 129//62 160//62 159//62
f 159//62 158//62 157//62
f 157//62 156//62 155//62
f 155//62 154//62 151//62
f 153//62 152//62 151//62
f 151//62 150//62 149//62
f 149//62 148//62 151//62
f 147//62 146//62 145//62
f 145//62 144//62 143//62
f 143//62 142//62 141//62
f 141//62 140//62 143//62
f 139//62 138//62 137//62
f 137//62 136//62 135//62
f 135//62 134//62 133//62
f 133//62 132//62 131//62
f 130//62 129//62 159//62
f 159//62 157//62 155//62
f 154//62 153//62 151//62
f 151//62 148//62 147//62
f 147//62 145//62 143//62
f 143//62 140//62 139//62
f 139//62 137//62 135//62
f 135//62 133//62 139//62
f 131//62 159//62 147//62
f 155//62 151//62 147//62
f 147//62 143//62 131//62
f 139//62 133//62 131//62
f 159//62 155//62 147//62
f 62//63 60//60 158//62
f 16//16 136//62 137//62
f 34//34 145//62 146//62
f 52//52 154//62 155//62
f 10//10 8//8 132//62
f 26//26 141//62 142//62
f 44//44 150//62 151//62
f 62//63 159//62 160//62
f 18//18 137//62 138//62
f 38//38 36//36 146//62
f 56//56 54//54 155//62
f 10//10 133//62 134//62
f 28//28 142//62 143//62
f 48//48 46//46 151//62
f 2//1 129//62 130//62
f 2//1 64//65 160//62
f 20//20 138//62 139//62
f 38//38 147//62 148//62
f 58//58 56//56 156//62
f 14//14 12//12 134//62
f 30//30 143//62 144//62
f 48//48 152//62 153//62
f 4//4 130//62 131//62
f 22//22 139//62 140//62
f 40//40 148//62 149//62
f 60//60 58//58 157//62
f 14//14 135//62 136//62
f 32//32 144//62 145//62
f 52//52 50//50 153//62
f 6//6 131//62 132//62
f 26//26 24//24 140//62
f 192//67 161//67 162//67
f 162//67 163//67 164//67
f 164//67 165//67 166//67
f 166//67 167//67 164//67
f 168//67 169//67 170//67
f 170//67 171//67 168//67
f 172//67 173//67 176//67
f 174//67 175//67 176//67
f 176//67 177//67 180//67
f 178//67 179//67 180//67
f 180//67 181//67 182//67
f 182//67 183//67 184//67
f 184//67 185//67 186//67
f 186//67 187//67 188//67
f 188//67 189//67 192//67
f 190//67 191//67 192//67
f 192//67 162//67 164//67
f 164//67 167//67 168//67
f 168//67 171//67 172//67
f 173//67 174//67 176//67
f 177//67 178//67 180//67
f 180//67 182//67 184//67
f 184//67 186//67 192//67
f 189//67 190//67 192//67
f 192//67 164//67 176//67
f 168//67 172//67 176//67
f 176//67 180//67 192//67
f 186//67 188//67 192//67
f 164//67 168//67 176//67
f 33//83 35//84 178//67
f 51//92 53//93 187//67
f 9//72 165//67 164//67
f 25//79 27//80 174//67
f 43//88 45//89 183//67
f 63//98 192//67 191//67
f 17//75 19//76 170//67
f 35//84 37//85 179//67
f 53//93 55//94 188//67
f 9//72 11//73 166//67
f 29//81 175//67 174//67
f 47//90 184//67 183//67
f 1//69 3//68 162//67
f 1//69 161//67 192//67
f 21//77 171//67 170//67
f 37//85 39//86 180//67
f 57//95 189//67 188//67
f 13//74 167//67 166//67
f 31//82 176//67 175//67
f 47//90 49//91 185//67
f 5//70 163//67 162//67
f 23//78 172//67 171//67
f 39//86 41//87 181//67
f 59//96 190//67 189//67
f 13//74 15//66 168//67
f 33//83 177//67 176//67
f 51//92 186//67 185//67
f 5//70 7//71 164//67
f 25//79 173//67 172//67
f 43//88 182//67 181//67
f 61//97 191//67 190//67
