# Blender v2.79 (sub 0) OBJ File: ''
# www.blender.org
v 0.000000 -0.942884 -0.000000
v -0.986317 -0.942884 -0.986317
v 0.986317 -0.942884 -0.986317
v 0.000000 0.942884 0.000000
v 0.986317 -0.942884 0.986317
v -0.986317 -0.942884 0.986317
v 0.000000 0.942884 0.000000
v 0.000000 0.942884 0.000000
v 0.000000 0.942884 0.000000
v -0.986317 -0.942884 0.986317
v -0.986317 -0.942884 0.986317
v 0.986317 -0.942884 -0.986317
v 0.986317 -0.942884 -0.986317
v 0.986317 -0.942884 0.986317
v 0.986317 -0.942884 0.986317
v -0.986317 -0.942884 -0.986317
v -0.986317 -0.942884 -0.986317
vn 0.0000 -1.0000 -0.0000
vn 0.0000 0.4635 -0.8861
vn 0.8861 0.4635 0.0000
vn 0.0000 0.4635 0.8861
vn -0.8861 0.4635 0.0000
s 1
f 1//1 17//1 12//1
f 16//2 8//2 13//2
f 1//1 12//1 14//1
f 3//3 9//3 15//3
f 1//1 14//1 11//1
f 5//4 7//4 10//4
f 1//1 11//1 17//1
f 6//5 4//5 2//5
